<?xml version="1.0" encoding="utf-8"?>
<!-- Generator: Adobe Illustrator 24.1.0, SVG Export Plug-In . SVG Version: 6.00 Build 0)  -->
<svg version="1.1" id="Layer_1" xmlns="http://www.w3.org/2000/svg" xmlns:xlink="http://www.w3.org/1999/xlink" x="0px" y="0px"
	 viewBox="0 0 178 37" style="enable-background:new 0 0 178 37;" xml:space="preserve">
<style type="text/css">
	.st0{fill:none;}
	.st1{fill:#E6272C;}
	.st2{fill:#1C3758;}
	.st3{fill:#20201E;}
	.st4{fill:#203A5B;}
	.st5{fill:#1E3859;}
	.st6{fill:#FFFFFF;}
</style>
<rect class="st0" width="127.2" height="36.5"/>
<rect x="127.2" class="st0" width="50.8" height="36.5"/>
<g>
	<path class="st1" d="M70.9,11.8c0,0.6,0,1.3,0,1.9c0,0.4,0.1,0.8,0.4,1.1c0.2,0.3,0.5,0.6,0.8,0.5c0.4-0.1,0.8-0.4,0.8-0.8
		c0.3-1.4,0.5-2.8,0.2-4.2C73,9.7,72.8,9.3,72.3,9c-0.4-0.2-0.1-0.3,0-0.4C72.7,8.2,74,8,74.5,8.2c0.3,0.1,0.2,0.3,0.1,0.5
		c-0.5,2.1-0.9,4.2-1.3,6.3c-0.5,2.9-1,5.8-0.9,8.7c0,1.5-0.6,2.4-1.8,3c-1.5,0.8-3.2,1.1-4.8,1.3c-2.6,0.3-5.2,0.4-7.9,0
		c-1.7-0.2-3.3-0.5-4.9-1.3c-1.2-0.6-1.9-1.4-1.7-2.8c0.5-4.6,1.4-9.2,3.4-13.4c0.4-1,1-1.9,1.6-2.7c0.3-0.4,0.7-0.7,1.3-0.7
		c3.4-0.3,6.8-0.6,10.2-0.8c2.2-0.2,4.4-0.3,6.5-0.4c0.6,0,0.9,0.2,0.9,0.7c0,0.6-0.2,0.9-0.9,0.8c-0.8,0-1.6,0-2.3,0.4
		c-0.8,0.4-1.2,1.1-1.3,2C70.8,10.4,70.9,11.1,70.9,11.8z M56.6,9.2c-0.9,1.2-1.4,2.4-1.5,3.8c-0.1,0.6-0.2,1.2,0.1,1.9
		c2,3.9,4,7.8,6,11.7c0.1,0.3,0.3,0.4,0.6,0.4c1.1-0.1,2.2-0.1,3.4-0.2c0.5,0,0.5-0.2,0.3-0.5c-0.9-1.7-1.8-3.4-2.7-5.1
		C60.7,17.2,58.7,13.3,56.6,9.2z M54.1,15.8c-0.4,0.9-0.6,1.8-0.1,2.6c1.4,2.8,2.8,5.5,4.2,8.3c0.1,0.2,0.1,0.4,0.4,0.4
		c0.4,0,0.9,0,1.4,0C58,23.2,56.1,19.5,54.1,15.8z"/>
	<path class="st2" d="M48.7,35.2c1.2-0.4,2.3-0.8,3.5-0.9c0.2,0,0.3,0,0.5,0c0.5-0.1,0.6-0.5,0.3-0.9c-0.1-0.1-0.2-0.2-0.3-0.2
		c-1.7-0.6-1.9-2.2-2.1-3.7c-0.1-0.6-0.1-1.2-0.1-1.8c0-0.3,0-0.4,0.4-0.3c1,0.4,1.9,0.8,2.7,1.5c0.6,0.5,1.1,1,1,2
		c-0.1,0.4,0.4,0.7,0.7,1c0.8,0.6,1.8,0.9,2.9,1c2,0.2,4,0.1,6.1,0.1c1,0,1.7-0.5,1.8-1.5c0.1-1.4,1.2-2.3,2.8-2.3
		c0.8,0,1.6,0,2.4-0.2c0.5-0.2,0.9-0.5,1.4-0.7c-0.1,1.3-0.2,2.6,0.1,3.8c0.3,1.5,0.9,2,2.4,2c12.1,0,24.2,0.1,36.3,0.1
		c4.1,0,8.2,0.2,12.3,0.6c1.2,0.1,2.4,0.2,3.5,0.7c-26.2,0-52.4,0-78.6,0C48.7,35.3,48.7,35.3,48.7,35.2z"/>
	<path class="st3" d="M75.4,22.5c-0.2,0.5-0.5,1-0.8,1.6c0-1,0-1.9,0-2.8c0.1-3.5,0.5-7,1.3-10.4c0.3-1.3,0.7-2.5,1.4-3.6
		c1.4-2.4,3.4-2.8,5.6-1.1c0,0,0,0,0,0c2.3,1.7,2.3,1.7,2.3,4.5c0,1,0,2,0,3.1c0,0.2,0.1,0.4-0.3,0.4c-1.8-0.1-3.3,0.7-4.7,1.7
		c-0.6,0.4-1.1,0.9-1.6,1.5c-0.2,0-0.3,0.1-0.5,0.1c-1.7-0.1-3.3,1.7-3.2,3.3C75.2,21.4,75.4,21.9,75.4,22.5z"/>
	<path class="st4" d="M115.7,17.8c-11.1-4.7-22.2-9.4-33.4-14.1c-0.1,0-0.2-0.1-0.3-0.1c-1.5-0.8-1.8-0.7-3,0.4
		c-0.1,0.1-0.1,0.1-0.2,0.1c0-0.5,0.2-0.9,0.5-1.3c-0.1-0.1-0.2-0.1-0.3-0.1c-3.6-0.1-7.1,0-10.7,0.4c-3.3,0.4-6.6,0.8-9.6,2.4
		c0,0-0.1,0-0.2,0c0.9-1,2-1.6,3.2-2.1c1.6-0.8,3.4-0.9,5.1-1.2c3.6-0.5,7.3-1,10.9-0.9c1.3,0,2.6,0.1,3.8,0.5
		c0.7,0.2,1.4,0.5,2,0.9c0.7,0.6,1.5,0.9,2.4,0.8c0.8-0.1,1.6,0.1,2.4,0.5c2,1.2,4.2,1.9,6.2,2.9c1.7,0.8,3.4,1.5,5.2,2.3
		c0.8,0.4,1.5,0.8,2.1,1.5c0.5,0.5,1.1,0.9,1.7,1.2c3.9,1.8,7.7,3.7,11.6,5.5C115.2,17.5,115.5,17.5,115.7,17.8L115.7,17.8z"/>
	<path class="st5" d="M110.1,18.1c1.7,1,2.2,3.5,0.6,4.9c-0.2,0.2-0.2,0.4-0.1,0.6c0.4,0.9,0.8,1.9,1.2,2.9c0.3,0.7,0.3,0.7-0.5,0.7
		c-0.6,0-1.2,0-1.8,0c-0.3,0-0.5-0.1-0.6-0.4c-0.3-0.8-0.7-1.6-1.1-2.4c-0.3-0.8-0.1-1.7-0.1-2.5c0-0.2,0.2-0.2,0.3-0.2
		c0.4,0,0.7-0.1,0.8-0.6c0-0.2,0-0.5-0.2-0.7c-0.4-0.2-0.8-0.3-1.2-0.2c-0.2,0-0.1,0.3-0.1,0.5c0,2,0,3.9,0,5.9
		c0,0.5-0.1,0.6-0.6,0.6c-0.5,0-1.1-0.1-1.6,0c-0.6,0.1-0.7-0.2-0.7-0.7c0-2.5,0-5,0-7.4c0-0.1,0-0.3,0-0.4c0-0.8,0-0.8,0.8-0.8
		c1.5,0,3-0.1,4.4,0.1c0,0,0,0,0,0c0,0.1,0.1,0.1,0.2,0.1c0,0,0,0,0,0C110.1,18,110.1,18,110.1,18.1z"/>
	<path class="st2" d="M102.1,18.3c0.5,0.8,0.7,1.6,0.7,2.6c0,1.9,0,3.7,0,5.6c0,0.4-0.1,0.6-0.6,0.6c-0.6,0-1.1,0-1.7,0
		c-0.5,0-0.6-0.2-0.6-0.6c0-1.7,0-3.4,0-5.1c0-0.2,0-0.4,0-0.6c0-0.3-0.2-0.5-0.5-0.6c-0.4,0-0.6,0.2-0.7,0.5c-0.1,0.5,0,1-0.1,1.5
		c0,0.3,0.2,0.2,0.4,0.2c0.4-0.1,0.5,0.2,0.4,0.5c0,0.4,0,0.9,0,1.3c0,0.4,0.1,0.8-0.6,0.7c-0.3,0-0.2,0.2-0.2,0.4c0,0.5,0,1,0,1.5
		c0,0.3-0.1,0.4-0.4,0.4c-0.7,0-1.3,0-2,0c-0.3,0-0.4-0.1-0.4-0.4c0-2,0-3.9,0-5.9c0-1.8,1-2.9,2.9-3.3
		C100,17.4,101.2,17.4,102.1,18.3z"/>
	<path class="st5" d="M80.8,23.5c0-1,0-2,0-2.9c0.1-1.9,1.3-3,3.1-3.2c0.5,0,1,0,1.5,0.1c1.4,0.3,2.2,1.3,2.2,3.1c0,2,0,4,0,6
		c0,0.4-0.1,0.4-0.4,0.4c-0.7,0-1.3,0-2,0c-0.4,0-0.4-0.1-0.4-0.5c0-1.8,0-3.5,0-5.3c0-0.5,0.1-1.1-0.6-1.1c-0.7,0-0.6,0.6-0.6,1.1
		c0,0.2,0,0.4,0,0.7c0,0.3,0.1,0.4,0.4,0.4c0.3-0.1,0.4,0.1,0.4,0.4c0,0.6,0,1.1,0,1.7c0,0.2,0,0.4-0.3,0.4
		c-0.4-0.1-0.5,0.1-0.5,0.5c0,0.6,0.2,1.3-0.1,1.7c-0.4,0.4-1.1,0.1-1.7,0.1c-1,0-1,0-1-1C80.7,25.2,80.7,24.4,80.8,23.5
		C80.7,23.5,80.8,23.5,80.8,23.5z"/>
	<path class="st3" d="M86.5,8.7c3,1.1,5.9,2.2,8.8,3.3c1.1,0.4,1.1,0.4,1.1,1.5c0,1.1,0,2.2,0,3.4c-1.1-0.3-2.2-0.6-3.3-0.8
		c-2-0.5-4.1-1.1-6.1-1.6c-0.4-0.1-0.5-0.3-0.5-0.7C86.5,12.2,86.5,10.5,86.5,8.7z"/>
	<path class="st5" d="M75.4,22.5c0-0.6-0.2-1.1-0.3-1.7c-0.1-1.7,1.4-3.4,3.2-3.3c0.2,0,0.3-0.1,0.5-0.1c0.6,0.1,0.8,0.5,0.7,1.1
		c0,0.3,0,0.6,0,0.9c0,0.4,0.2,1-0.7,0.9c-0.5,0-0.7,0.5-0.6,1c0.1,0.4,0.4,0.8,0.6,1.2c1,2,0.1,4.1-1.9,4.7c-0.3,0.1-0.6,0.1-1,0.2
		c-1.2,0.1-1.4-0.2-1.4-1.4c0-0.5,0-1,0-1.6c0.4,0,0.7,0.3,1,0.1c0.5-0.2,0.6-0.5,0.4-1C75.9,23.1,75.8,22.7,75.4,22.5z"/>
	<path class="st5" d="M95.5,18.9c-0.7,0.5-1.3,1-2,1.4c-0.2,0.2-0.3,0.1-0.5-0.1c-0.5-0.5-1-0.3-1.1,0.4c-0.1,0.4,0,0.8,0,1.2
		c0,0.3,0.3,0.2,0.5,0.2c0.4,0,0.5,0.1,0.5,0.5c0,0.5,0,1.1,0,1.6c0,0.4-0.1,0.5-0.5,0.4c-0.4-0.1-0.6,0.1-0.5,0.5c0,0.5,0,1,0,1.5
		c0,0.3,0,0.4-0.4,0.4c-0.7,0-1.4,0-2.1,0c-0.2,0-0.4,0-0.4-0.3c0.1-2.1-0.2-4.2,0.1-6.3c0.2-1.4,1.2-2.6,2.6-2.9
		C93.3,17.2,94.6,17.7,95.5,18.9z"/>
	<path class="st3" d="M102.1,18.3c-0.9-0.9-2.1-0.9-3.2-0.8c-0.2-0.3-0.6-0.3-1-0.4c-0.3-0.1-0.4-0.2-0.4-0.5c0-1.1,0-2.2,0-3.2
		c0-0.4,0.1-0.4,0.5-0.3c3.5,1.3,6.9,2.6,10.4,3.9c0.6,0.2,1,0.5,1.5,0.9c-1.5-0.2-3-0.1-4.4-0.1c-0.8,0-0.8,0-0.8,0.8
		c0,0.1,0,0.3,0,0.4C103.7,18.7,102.9,18.5,102.1,18.3z"/>
	<path class="st4" d="M54.2,8.3c-0.6,0-1.1,0-1.7,0.2c-0.2,0.1-0.3,0.2-0.3,0.4c0,0.2,0.2,0.2,0.4,0.2c0.4,0.1,0.6,0.5,0.7,0.9
		c0.3,1.6,0.1,3.2-0.6,4.7c-0.1,0.2-0.2,0.4-0.4,0.4c-0.2,0-0.3-0.1-0.4-0.3c-0.7-1.8-1.1-3.6-0.8-5.5c0.3-1.7,1.9-2.2,3.6-2.2
		c0.2,0,0.4,0.1,0.6,0.1c0.2,0,0.5,0,0.5,0.4c0,0.3-0.1,0.6-0.5,0.6C54.9,8.3,54.5,8.3,54.2,8.3z"/>
	<path class="st1" d="M55.1,29.2c2.9,1,5.8,1.2,9,0.8C61.5,31.5,57.5,31.6,55.1,29.2z"/>
	<path class="st4" d="M56.7,31.4c2,0.1,3.9,0.4,5.8,0.4C60.5,32.6,58.6,32.6,56.7,31.4z"/>
	<path class="st3" d="M110,18c-0.1,0-0.2,0-0.2-0.1C109.9,17.9,109.9,17.9,110,18z"/>
	<polygon class="st4" points="115.6,17.8 115.7,17.8 115.7,17.8 	"/>
	<path class="st3" d="M110.1,18.1c0,0-0.1-0.1-0.1-0.1C110.1,18,110.1,18,110.1,18.1z"/>
	<path class="st6" d="M56.6,9.2c2.1,4,4.1,8,6.2,11.9c0.9,1.7,1.8,3.4,2.7,5.1c0.2,0.4,0.2,0.5-0.3,0.5c-1.1,0-2.2,0.1-3.4,0.2
		c-0.4,0-0.5-0.1-0.6-0.4c-2-3.9-4-7.8-6-11.7c-0.3-0.6-0.2-1.2-0.1-1.9C55.2,11.7,55.7,10.4,56.6,9.2z"/>
	<path class="st6" d="M54.1,15.8c1.9,3.8,3.8,7.4,5.8,11.2c-0.5,0-1,0-1.4,0c-0.2,0-0.3-0.2-0.4-0.4c-1.4-2.8-2.8-5.5-4.2-8.3
		C53.6,17.6,53.7,16.7,54.1,15.8z"/>
</g>
</svg>
